<?xml version="1.0" encoding="UTF-8" standalone="no"?>
<!-- Generator: Adobe Illustrator 16.0.0, SVG Export Plug-In . SVG Version: 6.00 Build 0)  -->

<svg
   xmlns:dc="http://purl.org/dc/elements/1.1/"
   xmlns:cc="http://creativecommons.org/ns#"
   xmlns:rdf="http://www.w3.org/1999/02/22-rdf-syntax-ns#"
   xmlns:svg="http://www.w3.org/2000/svg"
   xmlns="http://www.w3.org/2000/svg"
   xmlns:sodipodi="http://sodipodi.sourceforge.net/DTD/sodipodi-0.dtd"
   xmlns:inkscape="http://www.inkscape.org/namespaces/inkscape"
   version="1.1"
   id="Capa_1"
   x="0px"
   y="0px"
   width="512px"
   height="512px"
   viewBox="0 0 612 612"
   style="enable-background:new 0 0 612 612;"
   xml:space="preserve"
   inkscape:version="0.48.4 r9939"
   sodipodi:docname="arrows.svg"><metadata
     id="metadata3109"><rdf:RDF><cc:Work
         rdf:about=""><dc:format>image/svg+xml</dc:format><dc:type
           rdf:resource="http://purl.org/dc/dcmitype/StillImage" /><dc:title></dc:title></cc:Work></rdf:RDF></metadata><defs
     id="defs3107" /><sodipodi:namedview
     pagecolor="#ffffff"
     bordercolor="#666666"
     borderopacity="1"
     objecttolerance="10"
     gridtolerance="10"
     guidetolerance="10"
     inkscape:pageopacity="0"
     inkscape:pageshadow="2"
     inkscape:window-width="1920"
     inkscape:window-height="1056"
     id="namedview3105"
     showgrid="false"
     inkscape:zoom="1.7753906"
     inkscape:cx="140.81408"
     inkscape:cy="256"
     inkscape:window-x="1366"
     inkscape:window-y="24"
     inkscape:window-maximized="1"
     inkscape:current-layer="Capa_1" /><g
     id="g3068"
     style="fill:#ff9900;fill-opacity:1"><g
       id="Down"
       style="fill:#ff9900;fill-opacity:1"><g
         id="g3071"
         style="fill:#ff9900;fill-opacity:1"><path
           d="M306,0C137.012,0,0,137.012,0,306s137.012,306,306,306s306-137.012,306-306S474.988,0,306,0z M306,554.625     C168.912,554.625,57.375,443.088,57.375,306S168.912,57.375,306,57.375S554.625,168.912,554.625,306S443.088,554.625,306,554.625     z M411.188,229.5c-8.377,0-15.836,3.634-21.076,9.352l-0.076-0.057L306,330.48l-84.054-91.686l-0.077,0.057     c-5.221-5.718-12.68-9.352-21.057-9.352c-15.835,0-28.688,12.852-28.688,28.688c0,7.478,2.926,14.21,7.612,19.335l-0.077,0.057     l105.188,114.75c5.451,5.91,13.101,9.295,21.152,9.295s15.701-3.385,21.133-9.295L432.32,277.58l-0.076-0.057     c4.705-5.125,7.631-11.857,7.631-19.335C439.875,242.352,427.023,229.5,411.188,229.5z"
           fill="#FFFFFF"
           id="path3073"
           style="fill:#ff9900;fill-opacity:1" /></g></g></g><g
     id="g3075" /><g
     id="g3077" /><g
     id="g3079" /><g
     id="g3081" /><g
     id="g3083" /><g
     id="g3085" /><g
     id="g3087" /><g
     id="g3089" /><g
     id="g3091" /><g
     id="g3093" /><g
     id="g3095" /><g
     id="g3097" /><g
     id="g3099" /><g
     id="g3101" /><g
     id="g3103" /></svg>